<?xml version="1.0" standalone="no"?>
<!DOCTYPE svg PUBLIC "-//W3C//DTD SVG 20010904//EN"
 "http://www.w3.org/TR/2001/REC-SVG-20010904/DTD/svg10.dtd">
<svg version="1.0" xmlns="http://www.w3.org/2000/svg"
 width="900.000000pt" height="900.000000pt" viewBox="0 0 900.000000 900.000000"
 preserveAspectRatio="xMidYMid meet">

<g transform="translate(0.000000,900.000000) scale(0.100000,-0.100000)"
fill="#000000" stroke="none">
<path d="M4250 8203 c-404 -26 -798 -113 -1150 -255 -820 -331 -1485 -934
-1898 -1719 -523 -997 -547 -2233 -62 -3255 240 -506 603 -961 1055 -1324 88
-71 310 -222 420 -287 325 -190 751 -352 1125 -427 266 -53 351 -60 710 -61
376 0 463 7 748 65 214 44 484 125 647 195 123 53 165 76 165 90 0 11 6 14 23
10 42 -11 333 152 549 306 263 188 475 388 706 663 373 446 651 1025 766 1596
55 272 80 568 72 835 -9 284 -5 271 -95 279 -66 5 -61 17 6 14 34 -2 64 -1 67
2 6 7 -26 231 -49 340 -206 996 -796 1843 -1660 2385 -343 215 -771 391 -1144
469 -311 66 -711 97 -1001 79z m790 -214 c0 -6 -4 -7 -10 -4 -5 3 -10 11 -10
16 0 6 5 7 10 4 6 -3 10 -11 10 -16z m-29 -62 c-1 -12 -15 -9 -19 4 -3 6 1 10
8 8 6 -3 11 -8 11 -12z m-1216 -236 c3 -5 1 -12 -5 -16 -5 -3 -10 1 -10 9 0
18 6 21 15 7z m1135 -52 c0 -5 -4 -9 -10 -9 -5 0 -10 7 -10 16 0 8 5 12 10 9
6 -3 10 -10 10 -16z m690 -25 c0 -8 -4 -12 -10 -9 -5 3 -10 10 -10 16 0 5 5 9
10 9 6 0 10 -7 10 -16z m-18 -66 c-9 -9 -12 -7 -12 12 0 19 3 21 12 12 9 -9 9
-15 0 -24z m-2288 -34 c9 -24 7 -28 -9 -14 -17 14 -20 30 -6 30 5 0 12 -7 15
-16z m-947 -166 c-3 -7 -5 -2 -5 12 0 14 2 19 5 13 2 -7 2 -19 0 -25z m893 -2
c0 -3 -4 -8 -10 -11 -5 -3 -10 -1 -10 4 0 6 5 11 10 11 6 0 10 -2 10 -4z
m-576 -38 c23 -33 9 -36 -22 -5 -21 21 -23 27 -10 27 9 0 24 -10 32 -22z m93
6 c-3 -3 -12 -4 -19 -1 -8 3 -5 6 6 6 11 1 17 -2 13 -5z m101 -24 c6 0 12 -5
12 -11 0 -13 -50 -3 -65 13 -7 8 -2 9 15 4 14 -3 31 -6 38 -6z m67 -10 c3 -5
-3 -10 -14 -10 -12 0 -21 5 -21 10 0 6 6 10 14 10 8 0 18 -4 21 -10z m101 -16
c18 -14 18 -15 -6 -8 -31 8 -50 24 -29 24 8 0 24 -7 35 -16z m-470 -32 c-9 -8
-26 10 -26 26 1 15 2 15 15 -2 8 -11 13 -21 11 -24z m212 -14 c19 -19 14 -30
-8 -18 -11 6 -20 15 -20 20 0 14 14 12 28 -2z m4062 -19 c0 -5 -4 -9 -10 -9
-5 0 -10 7 -10 16 0 8 5 12 10 9 6 -3 10 -10 10 -16z m-3811 -18 c9 -6 10 -11
2 -15 -13 -8 -31 1 -31 15 0 11 11 11 29 0z m1736 -141 c329 -69 565 -215 759
-469 46 -60 56 -81 57 -115 1 -24 4 -31 6 -18 4 21 8 18 39 -30 18 -29 34 -57
34 -62 0 -4 18 -48 40 -97 41 -92 98 -271 126 -399 10 -48 16 -126 17 -215 0
-131 1 -134 7 -50 3 50 7 86 8 80 34 -171 43 -609 18 -877 -49 -523 -203
-1129 -388 -1528 -49 -107 -54 -115 -67 -112 -7 1 -10 -2 -6 -7 14 -24 -128
-239 -154 -233 -7 1 -10 -2 -6 -7 3 -6 -11 -29 -32 -53 -48 -54 -56 -60 -65
-45 -5 8 -8 4 -8 -9 0 -26 -38 -56 -140 -112 -169 -92 -354 -128 -615 -119
-179 7 -251 18 -379 61 -398 134 -660 567 -865 1431 -102 433 -141 739 -141
1115 0 391 52 711 164 1010 99 262 211 434 378 577 199 170 428 267 715 303
114 15 385 3 498 -20z m2585 -1746 c0 -8 9 -14 20 -14 16 0 20 -7 20 -35 0
-19 -4 -35 -10 -35 -5 0 -10 7 -10 15 0 8 -11 25 -25 38 -17 15 -24 29 -19 40
7 19 24 13 24 -9z m-70 -24 c0 -5 -2 -10 -4 -10 -3 0 -8 5 -11 10 -3 6 -1 10
4 10 6 0 11 -4 11 -10z m10 -102 c26 -19 28 -23 13 -33 -11 -8 -13 -14 -5 -19
19 -11 14 -26 -8 -26 -15 0 -20 7 -20 24 0 14 -4 28 -10 31 -10 6 -14 45 -5
45 3 0 19 -10 35 -22z m380 -103 c0 -8 -4 -15 -10 -15 -5 0 -10 7 -10 15 0 8
5 15 10 15 6 0 10 -7 10 -15z m-390 -51 c0 -8 -5 -12 -10 -9 -6 4 -8 11 -5 16
9 14 15 11 15 -7z m57 -46 c-2 -13 -4 -5 -4 17 -1 22 1 32 4 23 2 -10 2 -28 0
-40z m533 22 c0 -5 -4 -10 -9 -10 -6 0 -13 5 -16 10 -3 6 1 10 9 10 9 0 16 -4
16 -10z m50 -16 c0 -8 -5 -12 -10 -9 -6 4 -8 11 -5 16 9 14 15 11 15 -7z
m-525 -44 c3 -6 -1 -7 -9 -4 -18 7 -21 14 -7 14 6 0 13 -4 16 -10z m519 0 c-6
-6 -73 -13 -150 -16 -93 -3 -132 -1 -119 5 11 6 49 8 85 5 36 -3 83 -1 105 4
56 14 92 15 79 2z m-417 -25 c9 -25 -2 -27 -22 -5 -17 18 -17 20 -1 20 9 0 19
-7 23 -15z m88 -5 c-3 -5 -15 -10 -26 -10 -10 0 -19 5 -19 10 0 6 12 10 26 10
14 0 23 -4 19 -10z m-235 -36 c0 -8 -4 -12 -10 -9 -5 3 -10 10 -10 16 0 5 5 9
10 9 6 0 10 -7 10 -16z m7 -121 c-3 -10 -5 -4 -5 12 0 17 2 24 5 18 2 -7 2
-21 0 -30z m-37 -35 c0 -12 -14 -9 -38 8 -33 23 -27 36 8 16 16 -9 30 -20 30
-24z m80 -8 c0 -5 -2 -10 -4 -10 -3 0 -8 5 -11 10 -3 6 -1 10 4 10 6 0 11 -4
11 -10z m-326 -26 c11 -28 6 -37 -11 -22 -10 9 -31 20 -48 26 l-30 10 41 1
c30 1 44 -4 48 -15z m236 -19 c0 -8 -7 -15 -15 -15 -16 0 -20 12 -8 23 11 12
23 8 23 -8z m-570 -89 c0 -3 -4 -8 -10 -11 -5 -3 -10 -1 -10 4 0 6 5 11 10 11
6 0 10 -2 10 -4z m1060 -26 c0 -5 -4 -10 -10 -10 -5 0 -10 5 -10 10 0 6 5 10
10 10 6 0 10 -4 10 -10z m-630 -134 c0 -14 -4 -28 -10 -31 -5 -3 -10 -3 -10 2
0 4 -3 18 -6 31 -5 16 -2 22 10 22 10 0 16 -9 16 -24z m216 -33 c-11 -11 -17
4 -9 23 7 18 8 18 11 1 2 -10 1 -21 -2 -24z m-851 -68 l6 -30 -15 25 c-17 28
-22 60 -7 45 5 -6 12 -23 16 -40z m-215 -166 c0 -10 -4 -19 -10 -19 -5 0 -10
12 -10 26 0 14 4 23 10 19 6 -3 10 -15 10 -26z m132 -71 c-11 -21 -12 -21 -7
-2 6 23 -11 46 -46 65 -11 5 -17 14 -14 19 3 5 22 -6 42 -25 33 -30 36 -36 25
-57z m-562 52 c0 -5 -5 -10 -11 -10 -5 0 -7 5 -4 10 3 6 8 10 11 10 2 0 4 -4
4 -10z m480 -50 c0 -5 -4 -10 -10 -10 -5 0 -10 5 -10 10 0 6 5 10 10 10 6 0
10 -4 10 -10z m1490 -45 c0 -8 -4 -15 -10 -15 -5 0 -10 7 -10 15 0 8 5 15 10
15 6 0 10 -7 10 -15z m30 -110 c0 -8 -7 -15 -15 -15 -16 0 -20 12 -8 23 11 12
23 8 23 -8z m71 -10 c-1 -15 -24 -12 -29 3 -3 9 2 13 12 10 10 -1 17 -7 17
-13z m67 -24 c3 -8 -1 -12 -9 -9 -7 2 -15 10 -17 17 -3 8 1 12 9 9 7 -2 15
-10 17 -17z m-78 -17 c0 -8 -5 -12 -10 -9 -6 4 -8 11 -5 16 9 14 15 11 15 -7z
m-1490 -25 c0 -5 -4 -9 -10 -9 -5 0 -10 7 -10 16 0 8 5 12 10 9 6 -3 10 -10
10 -16z m347 -51 c-3 -8 -6 -5 -6 6 -1 11 2 17 5 13 3 -3 4 -12 1 -19z m1044
-8 c26 -14 24 -32 -3 -28 -13 2 -24 11 -26 21 -4 20 2 21 29 7z m-1411 -15 c0
-8 -2 -15 -4 -15 -2 0 -6 7 -10 15 -3 8 -1 15 4 15 6 0 10 -7 10 -15z m964 -1
c17 -7 22 -34 6 -34 -5 0 -14 9 -20 20 -12 22 -10 23 14 14z m459 -146 c-10
-21 -12 -21 -18 -5 -10 25 2 54 17 39 8 -8 8 -18 1 -34z m-453 -38 c0 -5 -7
-10 -15 -10 -8 0 -15 5 -15 10 0 6 7 10 15 10 8 0 15 -4 15 -10z m-1570 -26
c0 -14 -4 -23 -10 -19 -5 3 -10 15 -10 26 0 10 5 19 10 19 6 0 10 -12 10 -26z
m597 -56 c-2 -13 -4 -3 -4 22 0 25 2 35 4 23 2 -13 2 -33 0 -45z m-826 -55
c-12 -20 -14 -14 -5 12 4 9 9 14 11 11 3 -2 0 -13 -6 -23z m276 -35 c-3 -7 -5
-2 -5 12 0 14 2 19 5 13 2 -7 2 -19 0 -25z m1270 10 c-3 -8 -6 -5 -6 6 -1 11
2 17 5 13 3 -3 4 -12 1 -19z m-1270 -90 c-3 -7 -5 -2 -5 12 0 14 2 19 5 13 2
-7 2 -19 0 -25z m1703 -68 c0 -5 -4 -10 -10 -10 -5 0 -10 5 -10 10 0 6 5 10
10 10 6 0 10 -4 10 -10z m-1830 -42 c0 -16 -3 -19 -11 -11 -6 6 -8 16 -5 22
11 17 16 13 16 -11z m1083 -53 c-7 -21 -13 -19 -13 6 0 11 4 18 10 14 5 -3 7
-12 3 -20z m-421 -57 c-7 -7 -12 -8 -12 -2 0 14 12 26 19 19 2 -3 -1 -11 -7
-17z m-402 -36 c0 -7 -4 -10 -10 -7 -5 3 -10 16 -10 28 0 18 2 19 10 7 5 -8
10 -21 10 -28z m-480 -92 c6 -11 7 -20 2 -20 -10 0 -32 21 -32 32 0 16 19 8
30 -12z m877 -92 c-3 -8 -6 -5 -6 6 -1 11 2 17 5 13 3 -3 4 -12 1 -19z m-870
-20 c-3 -8 -6 -5 -6 6 -1 11 2 17 5 13 3 -3 4 -12 1 -19z m393 -39 c0 -6 -4
-7 -10 -4 -5 3 -10 11 -10 16 0 6 5 7 10 4 6 -3 10 -11 10 -16z m470 -120 c0
-11 -4 -17 -10 -14 -5 3 -10 13 -10 21 0 8 5 14 10 14 6 0 10 -9 10 -21z m420
-79 c0 -5 -2 -10 -4 -10 -3 0 -8 5 -11 10 -3 6 -1 10 4 10 6 0 11 -4 11 -10z
m185 -70 c3 -5 -1 -10 -9 -10 -9 0 -16 5 -16 10 0 6 4 10 9 10 6 0 13 -4 16
-10z m65 -16 c0 -17 -22 -14 -28 4 -2 7 3 12 12 12 9 0 16 -7 16 -16z m-1760
-36 c0 -5 -4 -8 -10 -8 -5 0 -10 10 -10 23 0 18 2 19 10 7 5 -8 10 -18 10 -22z
m-992 -13 c-3 -3 -9 2 -12 12 -6 14 -5 15 5 6 7 -7 10 -15 7 -18z m2070 -10
c-3 -3 -9 2 -12 12 -6 14 -5 15 5 6 7 -7 10 -15 7 -18z m-1068 -51 c0 -8 -4
-14 -10 -14 -5 0 -10 9 -10 21 0 11 5 17 10 14 6 -3 10 -13 10 -21z m340 -14
c14 -11 22 -20 18 -20 -14 0 -58 23 -58 32 0 13 13 9 40 -12z m100 -40 c20 -6
21 -8 5 -8 -11 0 -29 3 -40 8 -25 11 1 11 35 0z m130 -40 c13 -9 13 -10 0 -10
-8 0 -22 5 -30 10 -13 9 -13 10 0 10 8 0 22 -5 30 -10z m20 -114 c0 -8 -4 -18
-10 -21 -5 -3 -10 3 -10 14 0 12 5 21 10 21 6 0 10 -6 10 -14z m50 -27 c0 -6
-4 -7 -10 -4 -5 3 -10 11 -10 16 0 6 5 7 10 4 6 -3 10 -11 10 -16z m-2656 -45
c4 -10 1 -14 -6 -12 -15 5 -23 28 -10 28 5 0 13 -7 16 -16z m2676 -39 c0 -5
-5 -3 -10 5 -5 8 -10 20 -10 25 0 6 5 3 10 -5 5 -8 10 -19 10 -25z m-2534 -20
c24 -18 10 -19 -41 0 -39 14 -39 14 -9 15 16 0 39 -7 50 -15z m92 -25 c39 -10
37 -8 46 -37 5 -14 3 -23 -3 -23 -6 0 -11 7 -11 15 0 17 -36 39 -55 31 -7 -2
-21 5 -32 16 -18 21 -18 21 2 14 11 -5 35 -12 53 -16z m940 -86 c-1 -36 -6
-68 -9 -70 -8 -5 -11 115 -3 127 12 20 15 6 12 -57z m-786 16 c9 0 20 -5 23
-10 4 -7 -3 -8 -22 -4 -52 13 -74 24 -68 34 4 7 14 5 28 -5 12 -8 29 -15 39
-15z m1938 -30 c0 -5 -2 -10 -4 -10 -3 0 -8 5 -11 10 -3 6 -1 10 4 10 6 0 11
-4 11 -10z m1205 -10 c3 -5 1 -10 -4 -10 -6 0 -11 5 -11 10 0 6 2 10 4 10 3 0
8 -4 11 -10z m-3027 -29 c3 -8 -1 -12 -9 -9 -7 2 -15 10 -17 17 -3 8 1 12 9 9
7 -2 15 -10 17 -17z m706 -6 c3 -8 1 -15 -4 -15 -6 0 -10 7 -10 15 0 8 2 15 4
15 2 0 6 -7 10 -15z m1366 -30 c0 -8 -7 -15 -15 -15 -26 0 -18 20 13 29 1 1 2
-6 2 -14z m-1960 -5 c0 -5 -4 -10 -10 -10 -5 0 -10 5 -10 10 0 6 5 10 10 10 6
0 10 -4 10 -10z m2916 -57 c-10 -10 -19 5 -10 18 6 11 8 11 12 0 2 -7 1 -15
-2 -18z m-966 -5 c0 -13 -23 -5 -28 10 -2 7 2 10 12 6 9 -3 16 -11 16 -16z
m-1179 -20 c21 -26 24 -38 9 -38 -5 0 -16 14 -25 30 -18 35 -11 39 16 8z
m-181 -2 c0 -2 -7 -6 -15 -10 -8 -3 -15 -1 -15 4 0 6 7 10 15 10 8 0 15 -2 15
-4z m-10 -64 c0 -7 -4 -10 -10 -7 -5 3 -10 16 -10 28 0 18 2 19 10 7 5 -8 10
-21 10 -28z m-1176 3 c3 -8 2 -15 -3 -15 -5 0 -14 7 -21 15 -10 12 -10 15 3
15 8 0 17 -7 21 -15z m-1104 -16 c0 -5 -7 -9 -15 -9 -8 0 -15 7 -15 15 0 9 6
12 15 9 8 -4 15 -10 15 -15z m3594 -4 c3 -9 0 -15 -9 -15 -8 0 -15 7 -15 15 0
8 4 15 9 15 5 0 11 -7 15 -15z m-1477 -47 c-3 -8 -6 -5 -6 6 -1 11 2 17 5 13
3 -3 4 -12 1 -19z m-1968 -63 c0 -5 -4 -3 -9 5 -5 8 -9 22 -9 30 0 16 17 -16
18 -35z m682 19 c12 -14 11 -16 -5 -13 -11 2 -21 10 -24 17 -5 17 13 15 29 -4z
m1374 6 c3 -5 2 -10 -4 -10 -5 0 -13 5 -16 10 -3 6 -2 10 4 10 5 0 13 -4 16
-10z m-1305 -63 c0 -5 -7 -4 -15 3 -8 7 -15 20 -15 29 1 13 3 13 15 -3 8 -11
15 -24 15 -29z m2689 7 c3 -16 1 -17 -13 -5 -19 16 -21 34 -3 29 6 -3 14 -13
16 -24z m-1164 -53 c-8 -7 -56 30 -50 39 3 4 16 -1 29 -13 14 -12 23 -24 21
-26z m-915 19 c0 -5 -4 -10 -10 -10 -5 0 -10 5 -10 10 0 6 5 10 10 10 6 0 10
-4 10 -10z m1835 -38 c-7 -8 -35 7 -35 18 0 6 7 6 20 -2 10 -7 17 -14 15 -16z
m-3068 -64 c-3 -8 -6 -5 -6 6 -1 11 2 17 5 13 3 -3 4 -12 1 -19z m3593 -13 c0
-8 -2 -15 -4 -15 -2 0 -6 7 -10 15 -3 8 -1 15 4 15 6 0 10 -7 10 -15z m-530
-71 c0 -8 -4 -12 -10 -9 -5 3 -10 10 -10 16 0 5 5 9 10 9 6 0 10 -7 10 -16z
m-460 -14 c0 -5 -5 -10 -11 -10 -5 0 -7 5 -4 10 3 6 8 10 11 10 2 0 4 -4 4
-10z m-315 -10 c3 -5 -1 -10 -9 -10 -9 0 -16 5 -16 10 0 6 4 10 9 10 6 0 13
-4 16 -10z m255 0 c0 -5 -7 -10 -16 -10 -8 0 -12 5 -9 10 3 6 10 10 16 10 5 0
9 -4 9 -10z m150 -20 c0 -5 -4 -10 -10 -10 -5 0 -10 5 -10 10 0 6 5 10 10 10
6 0 10 -4 10 -10z m76 -24 c10 -8 16 -18 12 -22 -10 -9 -58 12 -58 26 0 14 23
12 46 -4z m274 -56 c0 -5 -4 -10 -10 -10 -5 0 -10 5 -10 10 0 6 5 10 10 10 6
0 10 -4 10 -10z m220 -5 c7 -8 8 -15 2 -15 -5 0 -15 7 -22 15 -7 8 -8 15 -2
15 5 0 15 -7 22 -15z m195 -4 c3 -5 1 -12 -5 -16 -5 -3 -10 1 -10 9 0 18 6 21
15 7z m-80 -11 c3 -5 1 -10 -4 -10 -6 0 -11 5 -11 10 0 6 2 10 4 10 3 0 8 -4
11 -10z m-311 -51 c-3 -5 -10 -7 -15 -3 -5 3 -7 10 -3 15 3 5 10 7 15 3 5 -3
7 -10 3 -15z"/>
<path d="M5283 6318 c-20 -10 -53 -70 -58 -108 -1 -8 -5 -22 -8 -30 -8 -21
-27 -176 -27 -222 0 -26 4 -38 14 -38 8 0 18 5 21 10 11 18 22 10 41 -32 15
-33 16 -42 5 -46 -7 -2 -22 -13 -32 -23 -25 -25 -25 -24 -32 11 -12 60 -26 28
-26 -61 -1 -96 15 -193 29 -184 5 3 17 -6 26 -20 16 -25 71 -55 101 -55 10 0
11 4 3 19 -14 26 -13 98 1 107 8 4 10 32 7 83 -2 42 -2 90 2 106 3 17 7 -40 8
-125 3 -177 4 -185 17 -185 6 0 11 97 12 257 1 142 4 262 7 267 4 5 2 12 -4
16 -13 8 -13 82 0 90 6 4 8 16 4 27 -4 14 -2 18 5 14 16 -10 14 -1 -14 54 -21
42 -58 81 -75 79 -3 0 -15 -5 -27 -11z m54 -90 c-3 -8 -6 -5 -6 6 -1 11 2 17
5 13 3 -3 4 -12 1 -19z m-50 -460 c-3 -8 -6 -5 -6 6 -1 11 2 17 5 13 3 -3 4
-12 1 -19z m-10 -40 c-3 -8 -6 -5 -6 6 -1 11 2 17 5 13 3 -3 4 -12 1 -19z"/>
<path d="M3599 6318 c0 -2 -3 -14 -5 -28 -2 -13 -14 -34 -25 -46 -12 -13 -19
-28 -17 -35 2 -7 15 5 28 26 13 21 25 34 28 27 2 -6 -4 -23 -14 -37 -13 -20
-14 -25 -3 -23 8 2 17 8 22 13 4 6 6 1 5 -10 -1 -11 2 -51 6 -89 5 -40 5 -71
0 -75 -5 -3 -15 -17 -21 -31 l-11 -25 -7 29 c-5 18 -3 36 4 48 9 15 9 22 -3
34 -17 16 -21 8 -29 -61 -2 -17 -5 -8 -6 22 0 28 4 55 9 58 15 10 12 35 -5 35
-8 0 -15 -3 -16 -7 0 -5 -2 -27 -4 -50 -3 -22 2 -85 10 -139 10 -68 11 -100 4
-105 -12 -7 8 -89 23 -89 4 0 8 -5 8 -11 0 -7 7 -17 16 -23 11 -9 17 -33 19
-89 2 -42 0 -79 -5 -82 -5 -3 -7 -12 -4 -20 5 -11 10 -12 24 -3 14 9 17 20 13
44 -6 34 20 83 45 84 6 0 12 5 12 11 0 5 5 7 10 4 15 -9 12 -43 -6 -70 -9 -14
-14 -25 -11 -25 11 0 46 67 52 100 5 27 -1 50 -24 101 -45 99 -79 309 -72 447
1 13 5 20 11 17 5 -3 7 -43 5 -96 -3 -49 -1 -88 4 -85 5 3 11 -27 15 -67 10
-107 11 -108 36 -162 l24 -50 4 40 c4 38 -6 134 -29 290 -16 105 -67 205 -105
205 -8 0 -14 -1 -15 -2z m28 -320 c-3 -8 -6 -5 -6 6 -1 11 2 17 5 13 3 -3 4
-12 1 -19z m10 -40 c-3 -8 -6 -5 -6 6 -1 11 2 17 5 13 3 -3 4 -12 1 -19z m-60
-20 c-3 -8 -6 -5 -6 6 -1 11 2 17 5 13 3 -3 4 -12 1 -19z m160 -250 c-3 -8 -6
-5 -6 6 -1 11 2 17 5 13 3 -3 4 -12 1 -19z m-102 -138 c-3 -5 -11 -10 -16 -10
-6 0 -7 5 -4 10 3 6 11 10 16 10 6 0 7 -4 4 -10z"/>
<path d="M5593 6255 c0 -33 2 -45 4 -27 2 18 2 45 0 60 -2 15 -4 0 -4 -33z"/>
<path d="M3555 6274 c-24 -37 -13 -40 14 -4 12 17 17 30 12 30 -5 0 -16 -12
-26 -26z"/>
<path d="M5472 6280 c0 -14 2 -19 5 -12 2 6 2 18 0 25 -3 6 -5 1 -5 -13z"/>
<path d="M3590 6143 c0 -13 5 -23 10 -23 13 0 13 11 0 30 -8 12 -10 11 -10 -7z"/>
<path d="M3503 6105 c-7 -8 -13 -19 -13 -25 0 -5 -4 -10 -10 -10 -5 0 -10 8
-10 18 -1 16 -1 16 -11 0 -10 -17 -6 -58 7 -79 5 -8 10 -7 16 5 5 9 6 21 3 26
-3 5 0 7 8 4 18 -6 22 0 32 44 7 34 -2 41 -22 17z"/>
<path d="M5460 6058 c-8 -13 -13 -26 -12 -30 8 -29 9 -79 1 -83 -5 -4 -9 -60
-9 -125 0 -86 -3 -120 -12 -123 -10 -3 -10 -9 0 -27 14 -23 18 -111 7 -130 -3
-6 5 -10 18 -10 16 0 36 13 57 37 41 46 60 92 60 140 -1 62 -26 212 -39 227
-6 7 -22 43 -34 80 -21 64 -23 65 -37 44z"/>
<path d="M3500 5837 c0 -24 28 -97 50 -127 23 -33 25 -79 6 -143 -16 -54 -4
-62 20 -15 32 61 28 194 -5 174 -4 -3 -18 22 -31 55 -23 60 -40 83 -40 56z"/>
<path d="M3401 5782 c-15 -28 -14 -31 9 -25 22 6 24 11 11 32 -7 11 -11 10
-20 -7z"/>
<path d="M3354 5755 c-3 -19 -2 -56 3 -82 10 -46 10 -45 11 35 0 45 -2 82 -4
82 -2 0 -6 -16 -10 -35z"/>
<path d="M5591 5744 c0 -11 3 -14 6 -6 3 7 2 16 -1 19 -3 4 -6 -2 -5 -13z"/>
<path d="M3424 5700 c3 -30 6 -65 6 -77 0 -13 5 -23 11 -23 14 0 3 116 -12
140 -7 10 -9 -2 -5 -40z"/>
<path d="M5591 5605 c-2 -66 -4 -136 -4 -155 0 -19 -5 -38 -10 -42 -6 -3 -80
-7 -164 -7 -132 -1 -159 -4 -192 -21 -61 -31 -86 -73 -86 -146 0 -51 4 -66 29
-98 53 -70 71 -76 249 -76 131 0 159 -3 163 -15 7 -18 24 -20 24 -2 0 7 15 19
34 25 82 30 133 134 106 216 -16 49 -70 105 -108 112 l-32 6 -3 162 c-2 159
-3 160 -6 41z"/>
<path d="M3514 5648 c8 -71 26 -103 26 -47 0 19 6 41 12 47 9 9 10 15 2 20 -6
4 -13 15 -17 25 -3 9 -12 17 -18 17 -8 0 -10 -18 -5 -62z"/>
<path d="M5854 5320 c0 -91 2 -128 3 -82 2 45 2 119 0 165 -1 45 -3 8 -3 -83z"/>
<path d="M3275 5386 c-105 -46 -137 -193 -57 -269 52 -49 87 -57 269 -57 149
0 171 2 210 21 119 57 123 231 8 296 -37 21 -51 23 -220 22 -126 0 -189 -4
-210 -13z"/>
<path d="M5852 5120 c0 -19 2 -27 5 -17 2 9 2 25 0 35 -3 9 -5 1 -5 -18z"/>
<path d="M5199 4986 c-13 -6 -30 -24 -39 -39 -17 -30 -10 -49 31 -79 51 -38
284 -61 384 -38 72 16 96 75 51 126 -23 27 -25 28 -75 16 -87 -20 -170 -15
-293 16 -25 7 -44 6 -59 -2z"/>
<path d="M3615 4975 c-62 -16 -175 -18 -245 -5 -63 12 -93 -2 -104 -46 -17
-65 57 -101 211 -103 84 -1 216 22 250 44 38 25 48 57 29 94 -14 27 -22 31
-54 30 -20 -1 -59 -7 -87 -14z"/>
<path d="M5395 4648 c-2 -7 -9 -85 -14 -173 -14 -211 -38 -427 -55 -495 l-14
-55 -1 41 c-1 22 -5 44 -9 50 -5 5 -5 124 0 264 9 248 5 360 -11 360 -5 0 -14
-7 -21 -15 -7 -8 -18 -15 -24 -15 -6 -1 -24 -21 -40 -46 l-28 -45 -3 -292 c-2
-183 1 -297 7 -304 6 -7 8 -23 5 -34 -5 -17 -3 -19 6 -10 9 9 12 93 12 311 0
165 3 300 6 300 16 0 19 -106 13 -385 -4 -199 -2 -308 4 -325 6 -14 11 -19 11
-12 1 7 6 10 11 7 17 -11 11 -25 -16 -35 -24 -10 -25 -12 -18 -72 4 -35 7 -64
8 -65 1 -2 13 -4 26 -5 20 -3 31 10 71 77 26 44 64 127 85 185 l39 105 6 -45
c6 -43 6 -42 7 17 1 35 11 91 22 125 51 162 89 331 89 396 1 90 -42 153 -127
186 -33 12 -44 13 -47 4z m-115 -128 c0 -20 -2 -22 -10 -10 -5 8 -10 26 -10
40 0 20 2 22 10 10 5 -8 10 -26 10 -40z"/>
<path d="M3590 4617 c0 -19 -3 -50 -6 -68 -4 -24 -2 -30 4 -19 16 25 25 107
13 114 -7 5 -11 -5 -11 -27z"/>
<path d="M3518 4145 c3 -130 1 -210 -6 -217 -11 -11 -4 -48 9 -48 5 0 6 -6 3
-14 -3 -8 -1 -17 5 -21 6 -3 11 -14 11 -24 0 -10 9 -26 20 -36 20 -18 20 -17
20 38 0 32 -4 57 -10 57 -5 0 -10 -19 -10 -42 0 -23 -2 -39 -5 -36 -9 9 -12
74 -14 299 -1 156 -4 220 -14 233 -10 14 -12 -21 -9 -189z"/>
<path d="M3602 4280 c0 -14 2 -19 5 -12 2 6 2 18 0 25 -3 6 -5 1 -5 -13z"/>
<path d="M3620 4181 c0 -22 5 -43 10 -46 6 -4 10 12 10 39 0 25 -4 46 -10 46
-5 0 -10 -18 -10 -39z"/>
<path d="M3694 4165 c-3 -8 -3 -18 0 -24 8 -12 8 -199 1 -321 -11 -177 -13
-192 -25 -203 -10 -9 -12 -8 -7 5 4 11 2 15 -6 13 -13 -5 -67 77 -67 100 0 8
-4 16 -9 20 -14 8 3 -46 25 -81 44 -71 83 -93 100 -56 13 29 18 562 5 562 -7
0 -14 -7 -17 -15z"/>
<path d="M3623 4084 c-3 -8 -1 -20 6 -27 8 -8 11 -4 11 16 0 30 -7 35 -17 11z"/>
<path d="M5641 4004 c0 -11 3 -14 6 -6 3 7 2 16 -1 19 -3 4 -6 -2 -5 -13z"/>
<path d="M5631 3924 c0 -11 3 -14 6 -6 3 7 2 16 -1 19 -3 4 -6 -2 -5 -13z"/>
<path d="M3597 3847 c-4 -10 -7 -26 -7 -35 1 -15 2 -15 11 1 6 10 9 25 7 35
-3 16 -4 15 -11 -1z"/>
<path d="M3610 3718 c0 -3 8 -15 19 -26 17 -21 31 -20 31 1 0 6 -3 7 -7 4 -3
-4 -15 0 -25 10 -10 9 -18 14 -18 11z"/>
<path d="M4247 3375 c-148 -28 -217 -82 -217 -170 0 -102 78 -148 285 -167
162 -14 404 2 472 32 39 17 44 23 39 42 -16 62 -16 72 2 36 l19 -38 23 25 c29
30 32 100 6 139 -25 39 -84 73 -156 91 -93 24 -370 29 -473 10z m548 -71 c8
-20 15 -39 15 -43 -1 -8 -39 61 -40 72 -1 18 11 4 25 -29z"/>
<path d="M5162 3250 c0 -14 2 -19 5 -12 2 6 2 18 0 25 -3 6 -5 1 -5 -13z"/>
<path d="M5421 3244 c0 -11 3 -14 6 -6 3 7 2 16 -1 19 -3 4 -6 -2 -5 -13z"/>
<path d="M5042 2785 l1 -80 10 58 c6 40 6 65 -1 80 -8 17 -11 5 -10 -58z"/>
<path d="M4690 2600 c0 -5 5 -10 11 -10 5 0 7 5 4 10 -3 6 -8 10 -11 10 -2 0
-4 -4 -4 -10z"/>
<path d="M7490 6700 c12 -16 24 -30 26 -30 3 0 -4 14 -16 30 -12 17 -24 30
-26 30 -3 0 4 -13 16 -30z"/>
<path d="M7567 6589 c123 -184 274 -474 356 -684 379 -969 338 -2049 -112
-2980 -168 -347 -351 -615 -628 -918 -408 -446 -901 -769 -1500 -982 -476
-171 -1052 -240 -1573 -190 -158 15 -184 19 -375 55 -515 98 -1045 332 -1480
652 -44 33 -64 44 -45 26 20 -18 48 -42 64 -53 16 -11 40 -29 55 -41 14 -11
78 -55 141 -96 621 -408 1319 -618 2055 -618 1085 0 2101 467 2808 1289 696
809 1007 1849 872 2913 -59 464 -231 973 -463 1368 -75 127 -199 317 -213 326
-6 4 11 -27 38 -67z"/>
<path d="M2035 1710 c10 -11 20 -20 23 -20 3 0 -3 9 -13 20 -10 11 -20 20 -23
20 -3 0 3 -9 13 -20z"/>
<path d="M2110 1647 c0 -2 15 -14 33 -27 20 -15 27 -17 18 -6 -13 16 -51 41
-51 33z"/>
</g>
</svg>
